<?xml version="1.0" encoding="utf-8"?>
<!-- Generator: Adobe Illustrator 23.0.6, SVG Export Plug-In . SVG Version: 6.00 Build 0)  -->
<svg version="1.1" id="Layer_1" xmlns="http://www.w3.org/2000/svg" xmlns:xlink="http://www.w3.org/1999/xlink" x="0px" y="0px"
	 viewBox="0 0 440 60.3" style="enable-background:new 0 0 440 60.3;" xml:space="preserve">
<g>
	<title>Layer 1</title>
</g>
<g>
	<path d="M35.5,27.9c0.3,1.1,0.7,2.2,1,3.3c0.3,1.1,0.5,2.3,0.7,3.4c0.2,1.1,0.3,2.2,0.3,3.2c0,1.4-0.2,2.7-0.6,4.1
		s-0.9,2.6-1.6,3.8c-0.7,1.2-1.5,2.4-2.5,3.6s-2,2.2-3.1,3.2c-1.2,1-2.4,2-3.7,2.8c-1.3,0.9-2.7,1.6-4.1,2.3l-4-5.6
		c1.1-0.5,2.1-1.1,3.2-1.8c1.1-0.7,2.1-1.4,3.1-2.2c1-0.8,1.9-1.6,2.8-2.4c0.9-0.8,1.6-1.7,2.3-2.6c0.6-0.9,1.1-1.8,1.5-2.6
		c0.4-0.9,0.6-1.8,0.6-2.6c0-0.6-0.1-1.3-0.3-2c-0.2-0.7-0.4-1.5-0.7-2.3c-0.3-0.8-0.6-1.7-1-2.7c-0.4-0.9-0.8-1.9-1.3-3l6.4-2.9
		C34.8,25.8,35.1,26.8,35.5,27.9z"/>
	<path d="M41.8,37.5c0.1-1.3,0.1-2.6,0.2-3.9c0.1-1.3,0.1-2.5,0.1-3.7c0-1.2,0-2.3,0-3.3c-0.1-2.1-0.2-3.9-0.3-5.5
		c-0.1-1.6-0.2-3-0.2-4.2s-0.2-2.3-0.2-3.2c-0.1-0.9-0.2-1.8-0.3-2.5c-0.1-0.8-0.2-1.5-0.3-2.2s-0.2-1.4-0.3-2.1l6.9-2.3
		c0.3,2,0.6,4,0.8,6c0.2,2,0.4,3.9,0.5,5.8c0.1,1.8,0.2,3.6,0.2,5.1c0,1.6,0.1,2.9,0.1,4.1c0,1,0,2.1,0,3.3c0,1.2,0,2.4,0,3.7
		c0,1.3-0.1,2.6-0.1,3.9c0,1.3-0.1,2.6-0.2,3.8l-6.9,1.1C41.6,40,41.7,38.8,41.8,37.5z"/>
	<path d="M68.3,41.2c-0.3,0-0.8,0-1.3-0.1c-0.5,0-1.1-0.2-1.8-0.5c-0.3,1.8-0.9,3.6-1.8,5.2s-2,3.2-3.3,4.6c-1.3,1.4-2.8,2.8-4.5,4
		c-1.7,1.2-3.5,2.3-5.4,3.3l-4.1-5.6c1-0.5,2.1-1.1,3.2-1.7c1.1-0.6,2.1-1.3,3-2c1-0.7,1.9-1.4,2.7-2.2c0.8-0.8,1.6-1.5,2.2-2.4
		c0.6-0.8,1.1-1.6,1.5-2.5c0.4-0.9,0.5-1.7,0.5-2.6c0-0.6-0.1-1.3-0.3-2.2c-0.2-0.9-0.5-1.8-0.8-2.9c-0.3-1-0.7-2-1.1-3.1
		c-0.4-1-0.8-2-1.2-2.8l6.4-2.8c0.6,1.8,1.2,3.3,1.7,4.4s1.1,2.1,1.6,2.8c0.5,0.7,1,1.2,1.5,1.5s0.9,0.4,1.4,0.4h0.5v7H68.3z
		 M59,20.6l-4.9-4.9l4.9-4.9l4.9,4.9L59,20.6z"/>
	<path d="M88.8,34.2v7h-21v-7H88.8z"/>
	<path d="M87.9,34.2h5.3c0.6,0,1.3,0,2.1-0.1s1.5-0.2,2.2-0.4s1.2-0.5,1.7-0.9c0.5-0.4,0.7-0.9,0.7-1.6c0-0.4-0.1-0.9-0.3-1.6
		s-0.5-1.5-0.8-2.4c-0.3-0.9-0.7-1.8-1.2-2.7c-0.4-0.9-0.9-1.8-1.3-2.7l6.3-3.1c0.4,0.9,0.8,1.9,1.2,3c0.4,1,0.8,2.1,1.1,3.2
		c0.3,1.1,0.6,2.2,0.8,3.2c0.2,1.1,0.3,2.1,0.3,3.1c0,1.8-0.3,3.4-1,4.7c-0.7,1.3-1.6,2.3-2.7,3.1c-1.2,0.8-2.5,1.4-4.1,1.8
		c-1.6,0.4-3.2,0.5-5,0.5h-5.3V34.2z M96.5,47.7l-4.2,4.2l-4.3-4.3l4.3-4.3l4.2,4.2l4.2-4.2l4.3,4.3l-4.3,4.3L96.5,47.7z"/>
	<path d="M107.6,50c2.1-0.4,4-0.9,5.7-1.6c1.7-0.6,3.2-1.3,4.5-2.1c1.3-0.8,2.4-1.6,3.2-2.5c0.9-0.9,1.5-1.8,1.8-2.7
		c-0.6,0-1.3,0-2,0c-0.7,0-1.3,0-1.8-0.1c-1.5-0.1-2.8-0.4-4-0.8c-1.2-0.4-2.2-1-3.1-1.8c-0.9-0.8-1.5-1.7-2-2.8
		c-0.5-1.1-0.7-2.4-0.7-3.8c0-0.9,0.1-1.8,0.3-2.8c0.2-0.9,0.5-1.9,0.8-2.8c0.4-0.9,0.8-1.8,1.4-2.5c0.5-0.8,1.1-1.5,1.8-2.1
		c0.7-0.6,1.4-1.1,2.3-1.4c0.8-0.3,1.7-0.5,2.7-0.5c1.1,0,2.2,0.2,3.1,0.6c0.9,0.4,1.8,1,2.6,1.7c0.8,0.7,1.5,1.5,2.1,2.5
		c0.6,0.9,1.1,1.9,1.6,3c0.5,1.1,0.8,2.2,1.1,3.3c0.3,1.1,0.5,2.3,0.6,3.4h1v7h-1.4c-0.6,2.2-1.5,4.1-2.8,5.9
		c-1.3,1.8-2.8,3.3-4.5,4.6c-1.8,1.3-3.7,2.4-5.9,3.3c-2.2,0.9-4.4,1.5-6.7,1.8L107.6,50z M118.5,26.8c-0.3-0.1-0.7,0-1.1,0.3
		c-0.4,0.3-0.8,0.6-1.1,1.1c-0.3,0.5-0.6,1-0.9,1.5c-0.2,0.6-0.3,1.1-0.3,1.6c0,0.5,0.2,0.9,0.5,1.2s0.7,0.6,1.2,0.8
		c0.5,0.2,1,0.4,1.7,0.5c0.6,0.1,1.2,0.2,1.8,0.2c0.6,0,1.2,0.1,1.7,0.1h1.4c-0.2-0.9-0.5-1.8-0.8-2.6s-0.7-1.6-1.1-2.3
		c-0.4-0.7-0.8-1.2-1.4-1.7C119.6,27.2,119.1,26.9,118.5,26.8z"/>
	<path d="M150.6,34.2v7h-21v-7H150.6z"/>
	<path d="M170.8,34.2v7h-21v-7H170.8z"/>
	<path d="M169.9,34.2h2.1c0.9,0,1.7,0,2.6,0c0.9,0,1.8-0.1,2.6-0.2c0.8-0.1,1.6-0.3,2.3-0.5s1.2-0.6,1.7-1c0.4-0.4,0.7-1,0.9-1.7
		c0.1-0.7,0.1-1.6-0.2-2.6c-0.1-0.4-0.3-0.8-0.7-1.3c-0.3-0.5-0.8-1.1-1.3-1.7c-0.5-0.6-1.1-1.3-1.8-2c-0.7-0.7-1.4-1.4-2.1-2.1
		c-0.8-0.7-1.5-1.5-2.4-2.2c-0.8-0.7-1.7-1.4-2.5-2.1l0.7-6l18.6-8.3l2.7,5.9l-14.7,6.8c0.7,0.5,1.5,1.1,2.2,1.8
		c0.8,0.7,1.5,1.5,2.2,2.3c0.7,0.8,1.4,1.7,2,2.6s1.2,1.9,1.7,2.8c0.5,1,0.8,1.9,1.1,2.9c0.3,1,0.4,1.9,0.4,2.9c0,1.5-0.3,3-0.9,4.3
		c-0.6,1.3-1.3,2.5-2.3,3.4c-1,1-2.2,1.7-3.5,2.3c-1.4,0.6-2.9,0.8-4.5,0.8h-6.9V34.2z"/>
	<path d="M250.3,9.8l-16.3,6.5c1.3,1.1,2.6,2.2,3.9,3.3s2.5,2.3,3.6,3.5c1.1,1.2,1.9,2.4,2.6,3.6c0.7,1.2,1,2.4,1,3.7
		c0,1.4-0.4,2.6-1,3.6c-0.6,1-1.4,1.8-2.4,2.5c-1,0.7-2.1,1.2-3.4,1.6c-1.3,0.4-2.5,0.7-3.9,0.9c-1.3,0.2-2.6,0.3-3.9,0.4
		c-0.9,0-1.7,0.1-2.5,0.1c-0.4,0-0.7,0-1.1,0c-1.2,0-2.5-0.1-3.8-0.2s-2.7-0.3-4-0.5c-1.3-0.2-2.6-0.6-3.8-1c-1.2-0.4-2.3-1-3.2-1.7
		c-0.9-0.7-1.7-1.5-2.2-2.6c-0.5-1-0.8-2.2-0.8-3.6c0-0.5,0.1-1,0.2-1.6c0.1-0.6,0.3-1.2,0.5-1.9c0.2-0.6,0.5-1.2,0.8-1.8
		c0.3-0.6,0.6-1.1,0.8-1.5l2.6,1.9c-0.3,0.4-0.5,0.9-0.7,1.3c-0.2,0.4-0.4,0.8-0.6,1.2c-0.2,0.4-0.3,0.8-0.4,1.2s-0.2,0.9-0.2,1.3
		c0,1.3,0.4,2.3,1.2,3.2c0.8,0.8,1.9,1.4,3.2,1.9s2.9,0.8,4.7,1c1.8,0.2,3.7,0.3,5.8,0.3c0.2,0,0.4,0,0.6,0c0.8,0,1.6,0,2.6-0.1
		c1,0,2.1-0.1,3.2-0.3c1.1-0.1,2.2-0.3,3.3-0.6c1.1-0.3,2-0.6,2.8-1c0.8-0.4,1.5-0.9,2-1.5s0.7-1.3,0.7-2.1c0-0.6-0.2-1.2-0.5-1.9
		s-0.8-1.4-1.4-2.2s-1.3-1.5-2-2.3c-0.8-0.8-1.5-1.5-2.3-2.2c-0.8-0.7-1.6-1.4-2.4-2.1c-0.8-0.7-1.5-1.2-2.1-1.8
		c0.1-0.7,0.1-1.4,0.2-2.1c0.1-0.7,0.2-1.4,0.2-2.1l17-7.1L250.3,9.8z"/>
	<path d="M260.7,27.1c0.2,0.7,0.5,1.5,0.7,2.4c0.3,0.9,0.5,1.8,0.8,2.8c0.2,1,0.5,1.9,0.6,2.9c0.2,1,0.3,1.9,0.3,2.8
		c0,1.1-0.2,2.2-0.5,3.3c-0.3,1.1-0.8,2.1-1.4,3.1c-0.6,1-1.3,1.9-2.1,2.8s-1.7,1.8-2.6,2.6c-1,0.8-2,1.5-3,2.2
		c-1.1,0.7-2.2,1.3-3.3,1.9l-1.4-2.9c1.4-0.7,2.8-1.6,4.1-2.5c1.3-0.9,2.5-2,3.6-3.1s1.9-2.3,2.5-3.5c0.6-1.3,0.9-2.6,0.9-3.9
		c0-0.7-0.1-1.5-0.2-2.3c-0.2-0.8-0.3-1.7-0.6-2.5c-0.2-0.9-0.5-1.7-0.8-2.6c-0.3-0.9-0.5-1.7-0.8-2.5L260.7,27.1z"/>
	<path d="M268.1,50.6c2.1-0.5,3.9-1.1,5.6-1.9c1.7-0.8,3.1-1.7,4.3-2.7c1.2-1,2.1-2.1,2.8-3.2c0.7-1.1,1.1-2.2,1.3-3.4
		c-0.4,0-0.9,0-1.3,0c-0.6,0-1.4,0-2.2-0.1s-1.7-0.1-2.6-0.3c-0.9-0.2-1.8-0.4-2.5-0.7c-0.8-0.3-1.4-0.7-2-1.2s-1-1.2-1.3-1.9
		c-0.3-0.8-0.5-1.7-0.5-2.7c0-0.7,0.1-1.3,0.2-2.1c0.1-0.7,0.3-1.4,0.6-2.2s0.6-1.4,1-2c0.4-0.6,0.8-1.2,1.3-1.7
		c0.5-0.5,1.1-0.9,1.7-1.2c0.6-0.3,1.3-0.4,2-0.4c1,0,1.9,0.2,2.7,0.7c0.8,0.4,1.5,1,2.2,1.8c0.6,0.7,1.2,1.6,1.7,2.5s0.9,2,1.2,3
		c0.3,1,0.5,2.1,0.7,3.1c0.1,1,0.2,2,0.2,2.9c0,1.5-0.2,3-0.6,4.4c-0.4,1.4-1,2.6-1.7,3.8s-1.6,2.2-2.6,3.2c-1,0.9-2.1,1.8-3.4,2.5
		c-1.2,0.7-2.5,1.3-3.9,1.8c-1.4,0.5-2.8,0.8-4.2,1.1L268.1,50.6z M276.6,26.1c-0.5,0-1,0.2-1.5,0.6s-0.9,0.9-1.3,1.6
		c-0.4,0.6-0.7,1.3-0.9,2c-0.2,0.7-0.4,1.4-0.4,2.1c0.1,0.7,0.3,1.2,0.6,1.7c0.4,0.4,0.8,0.8,1.3,1.1s1.2,0.5,1.8,0.6
		c0.7,0.1,1.4,0.2,2.1,0.3c0.7,0,1.4,0.1,2.1,0.1c0.7,0,1.3,0,1.8,0c0-0.6-0.1-1.3-0.2-2c-0.1-0.7-0.3-1.5-0.5-2.2s-0.5-1.5-0.8-2.1
		s-0.7-1.3-1.1-1.8c-0.4-0.5-0.9-1-1.4-1.3S277.2,26.1,276.6,26.1z"/>
	<path d="M313.9,36.2v3.2h-1c-0.8,0-1.5-0.1-2.2-0.4c-0.7-0.3-1.3-0.8-1.8-1.6c-0.3,0.3-0.6,0.6-1,0.9c-0.4,0.2-0.8,0.4-1.3,0.5
		c-0.1,0-0.3,0.1-0.5,0.1c-0.2,0-0.6,0-1-0.1c-0.4-0.1-1-0.2-1.8-0.4c-0.7-0.2-1.5-0.5-2.4-0.8c-0.8-0.3-1.7-0.6-2.5-1
		s-1.7-0.6-2.4-1s-1.5-0.6-2.2-0.8c-0.1,0.1-0.1,0.2-0.1,0.3c0,0.1,0,0.3,0,0.6l0.7,18.7h-3.2l-0.7-18.6c0-0.1,0-0.2,0-0.2
		c0-0.5,0.1-1,0.2-1.5c0.1-0.5,0.4-0.9,0.7-1.3c0.3-0.4,0.7-0.7,1.2-0.9s1-0.3,1.5-0.3c0.5,0,1.1,0.1,1.9,0.3
		c0.2-0.6,0.4-1.2,0.7-1.9s0.6-1.3,1-2c0.4-0.7,0.8-1.3,1.2-1.9c0.4-0.6,0.9-1.1,1.5-1.6c0.5-0.5,1.1-0.8,1.7-1.1
		c0.6-0.2,1.2-0.3,1.8-0.3c0.1,0,0.1,0,0.2,0c1.1,0,2,0.3,2.9,0.7s1.5,1,2,1.7s1,1.5,1.3,2.3c0.3,0.9,0.5,1.8,0.5,2.7
		c0,0.3,0,0.6,0,0.8s0,0.7-0.1,1.1c0,0.4-0.1,1-0.3,1.6c0.1,0.3,0.2,0.6,0.4,0.9c0.1,0.3,0.3,0.5,0.5,0.7c0.2,0.2,0.4,0.4,0.7,0.5
		c0.3,0.1,0.5,0.2,0.8,0.2H313.9z M303,34.7c0.8,0.3,1.5,0.6,2.1,0.7c0.5,0.1,0.9,0.2,1,0.2c0.2-0.1,0.5-0.3,0.6-0.7
		c0.2-0.4,0.3-0.8,0.5-1.2c0.1-0.4,0.2-0.9,0.3-1.3c0.1-0.4,0.1-0.8,0.1-1.1c0-0.5-0.1-1.1-0.2-1.7c-0.2-0.6-0.4-1.1-0.7-1.6
		c-0.3-0.5-0.7-0.9-1.1-1.2c-0.5-0.3-1-0.5-1.6-0.5c0,0,0,0-0.1,0c-0.3,0-0.6,0.1-0.9,0.3c-0.3,0.2-0.6,0.5-1,0.8
		c-0.3,0.4-0.6,0.8-0.9,1.2c-0.3,0.5-0.6,0.9-0.8,1.4c-0.3,0.5-0.5,1-0.7,1.5c-0.2,0.5-0.4,1-0.5,1.4L303,34.7z"/>
	<path d="M332.4,36.2v3.2H313v-3.2H332.4z"/>
	<path d="M331.6,36.2h3.8c0.8,0,1.6,0,2.5-0.1c0.8-0.1,1.6-0.2,2.3-0.4c0.7-0.2,1.4-0.4,2-0.8c0.6-0.3,1-0.8,1.4-1.4
		c0.2-0.3,0.3-0.8,0.3-1.3c0-0.1,0-0.3,0-0.4c0-0.4,0-0.9-0.1-1.4c-0.1-0.5-0.2-1.1-0.4-1.8c-0.2-0.7-0.4-1.4-0.6-2s-0.5-1.3-0.7-2
		c-0.3-0.6-0.5-1.2-0.7-1.7l2.9-1.5c0.3,0.6,0.5,1.3,0.8,2c0.3,0.7,0.6,1.5,0.8,2.3c0.3,0.8,0.5,1.6,0.7,2.4
		c0.2,0.8,0.3,1.6,0.4,2.4c0,0.4,0.1,0.8,0.1,1.2c0,0.3,0,0.8-0.1,1.3c0,0.5-0.2,1.1-0.5,1.8c-0.4,0.9-0.9,1.6-1.6,2.2
		s-1.4,1.1-2.3,1.4c-0.9,0.3-1.9,0.6-2.9,0.7c-1.1,0.1-2.2,0.2-3.4,0.2h-4.7V36.2z M338.9,46.5l-3,3l-3-3l3-3L338.9,46.5z
		 M346.1,46.6l-3,3l-3-3l3-3L346.1,46.6z"/>
	<path d="M361.5,38.4c0,1.1-0.2,2.2-0.5,3.3c-0.3,1.1-0.8,2.1-1.4,3.1c-0.6,1-1.3,1.9-2.1,2.9c-0.8,0.9-1.7,1.8-2.6,2.6
		c-1,0.8-2,1.6-3,2.2c-1.1,0.7-2.1,1.3-3.2,1.9c-0.3-0.5-0.5-1-0.7-1.5s-0.5-0.9-0.7-1.4c0.9-0.5,1.8-1,2.7-1.6
		c0.9-0.6,1.8-1.2,2.7-1.9c0.9-0.7,1.7-1.4,2.4-2.2s1.4-1.6,1.9-2.5s0.9-1.8,1.2-2.7c0.2-0.7,0.3-1.3,0.3-2c0-0.3,0-0.6,0-0.9
		c-0.1-0.7-0.2-1.5-0.4-2.3c-0.2-0.8-0.4-1.7-0.6-2.5s-0.5-1.6-0.7-2.3c-0.2-0.7-0.4-1.4-0.6-1.9l3.1-0.9c0.5,1.5,1,2.8,1.5,3.9
		c0.5,1.1,1,2,1.6,2.7c0.6,0.7,1.1,1.2,1.7,1.6c0.6,0.3,1.2,0.5,1.9,0.5h0.4v3.2h-0.4c-0.2,0-0.5,0-0.8,0c-0.3,0-0.7-0.1-1.1-0.2
		c-0.4-0.1-0.8-0.3-1.2-0.6c-0.4-0.3-0.8-0.7-1.1-1.2V38.4z"/>
	<path d="M384.7,36.2v3.2h-19.4v-3.2H384.7z"/>
	<path d="M403.3,36.2v3.2h-19.4v-3.2H403.3z"/>
	<path d="M402.9,36.2c1.9,0,3.6-0.1,5-0.2c1.5-0.1,2.7-0.3,3.8-0.7c1.1-0.3,2-0.7,2.7-1.2c0.8-0.5,1.4-1.1,1.9-1.9
		c-0.9,0.1-1.8,0.1-2.6,0.1c-0.9,0-1.9-0.1-3-0.2c-1.1-0.1-2.2-0.5-3.1-1.1c-1-0.6-1.6-1.4-2-2.5c-0.3-0.7-0.4-1.5-0.4-2.4
		c0-0.5,0-1.1,0.1-1.7c0.1-0.8,0.4-1.7,0.7-2.5c0.3-0.9,0.8-1.6,1.3-2.3s1.2-1.3,1.9-1.7c0.7-0.4,1.5-0.7,2.3-0.7
		c0.9,0,1.7,0.2,2.4,0.6c0.7,0.4,1.4,0.9,2,1.5c0.6,0.6,1.1,1.3,1.6,2.2c0.5,0.8,0.8,1.7,1.1,2.6c0.3,0.9,0.5,1.8,0.7,2.7
		s0.2,1.8,0.2,2.6c0,1.3-0.2,2.5-0.6,3.6c-0.4,1-1,1.9-1.7,2.6c-0.7,0.7-1.6,1.4-2.6,1.8c-1,0.5-2.1,0.9-3.4,1.2
		c-1.2,0.3-2.5,0.5-3.9,0.6c-1.4,0.1-2.8,0.2-4.3,0.2h-0.7v-3.2H402.9z M411.6,20.5c-0.2,0-0.5,0.1-0.9,0.3
		c-0.3,0.2-0.7,0.5-1.1,0.8c-0.4,0.4-0.7,0.8-1,1.4c-0.3,0.6-0.5,1.2-0.7,2c-0.1,0.4-0.1,0.7-0.1,1c0,0.5,0.1,1,0.4,1.5
		s0.7,0.8,1.4,1.1c0.6,0.3,1.4,0.4,2.2,0.5c0.8,0,1.6,0.1,2.4,0.1c0.3,0,0.6,0,1,0c0.4,0,0.8,0,1.2-0.1c0-0.5-0.1-1-0.2-1.6
		c-0.1-0.6-0.3-1.2-0.5-1.8c-0.2-0.6-0.5-1.2-0.8-1.8c-0.3-0.6-0.6-1.1-1-1.6c-0.4-0.5-0.8-0.9-1.2-1.1
		C412.5,20.6,412.1,20.5,411.6,20.5z M414.4,9.6l-3,3l-3-3l3-3L414.4,9.6z"/>
</g>
</svg>
