<?xml version="1.0" encoding="utf-8"?>
<!-- Generator: Adobe Illustrator 23.0.6, SVG Export Plug-In . SVG Version: 6.00 Build 0)  -->
<svg version="1.1" id="Layer_1" xmlns="http://www.w3.org/2000/svg" xmlns:xlink="http://www.w3.org/1999/xlink" x="0px" y="0px"
	 viewBox="0 0 356 360" style="enable-background:new 0 0 356 360;" xml:space="preserve">
<style type="text/css">
	.st0{fill:#050A14;}
	.st1{fill:#00B4FF;}
</style>
<g>
	<title>Layer 1</title>
	<path id="svg_2" class="st0" d="M188.4,71.7c0,5.7-4.7,10.4-10.4,10.4c-5.7,0-10.4-4.7-10.4-10.4s4.7-10.4,10.4-10.4
		C183.7,61.3,188.4,66,188.4,71.7z M224.2,45c-2.2-3.9-5-7.5-8.2-10.7l-12,7c-3.7-3.2-8-5.7-12.6-7.3c-4,4-7.3,8.7-9.7,13.9
		c14.6-0.5,28.9,4.5,40.1,14l7.6-4.4C228.2,53.1,226.4,48.9,224.2,45z M178,125.1c4.5,0,9-0.6,13.4-1.7v-14
		c4.6-1.6,8.8-4.1,12.5-7.2c-1.4-5.5-3.8-10.7-7.1-15.3c-6.9,12.9-18.4,22.8-32.2,27.7v8.7C169,124.5,173.5,125.1,178,125.1
		L178,125.1z M131.8,45c-2.3,4-4,8.1-5.2,12.5l12,7c-0.9,4.8-0.9,9.6,0,14.4c5.7,1.5,11.3,2,16.9,1.5c-7.7-12.4-10.6-27.3-8-41.7
		l-7.5-4.3C136.8,37.6,134,41.1,131.8,45z"/>
	<path id="svg_3" class="st1" d="M224.2,98.4c2.3-3.9,4-8,5.2-12.4l-12-7c0.9-4.8,0.9-9.7,0-14.5c-5.7-1.5-11.3-2-16.9-1.5
		c7.7,12.4,10.6,27.3,8,41.7l7.5,4.4C219.2,105.9,222,102.3,224.2,98.4z M131.8,98.4c2.2,4,5,7.5,8.2,10.7l12-7
		c3.7,3.2,8,5.7,12.6,7.3c4-4.1,7.3-8.8,9.7-13.8c-14.6,0.4-28.9-4.5-40-14l-7.7,4.4C127.8,90.3,129.6,94.5,131.8,98.4z M178,18.4
		c-4.5,0-9,0.5-13.4,1.7V34c-4.6,1.6-8.8,4.1-12.5,7.2c1.5,5.7,4,10.8,7.1,15.4c6.9-12.9,18.4-22.8,32.2-27.7V20
		c-4.4-1.2-8.9-1.8-13.4-1.8L178,18.4L178,18.4z"/>
	<path id="svg_4" class="st1" d="M178,9.2c34.6,0,62.6,28.1,62.5,62.6c0,34.6-28.1,62.6-62.6,62.6s-62.6-28.1-62.5-62.7
		S143.4,9.2,178,9.2C178,9.2,178,9.2,178,9.2 M178,0c-39.6,0-71.8,32.1-71.8,71.8s32.1,71.8,71.8,71.8s71.8-32.1,71.8-71.8
		S217.6,0,178,0z"/>
	<path id="svg_6" class="st1" d="M0.5,251.9c29.6-0.5,59.2-0.8,88.8-1l88.7-0.3l88.7,0.3l44.4,0.4l44.4,0.6l-44.4,0.6l-44.4,0.4
		l-88.7,0.3l-88.7-0.3C59.7,252.7,30.1,252.4,0.5,251.9L0.5,251.9z"/>
</g>
<g>
	<path d="M42.5,209c0.3,0.8,0.5,1.6,0.7,2.5c0.2,0.8,0.4,1.7,0.5,2.5c0.1,0.8,0.2,1.6,0.2,2.4c0,1-0.1,2-0.4,3
		c-0.3,1-0.7,1.9-1.2,2.9c-0.5,0.9-1.1,1.8-1.8,2.7c-0.7,0.8-1.5,1.6-2.3,2.4c-0.9,0.8-1.8,1.5-2.8,2.1s-2,1.2-3,1.7l-3-4.2
		c0.8-0.4,1.6-0.8,2.4-1.3s1.6-1,2.3-1.6c0.7-0.6,1.4-1.2,2.1-1.8s1.2-1.3,1.7-1.9c0.5-0.7,0.9-1.3,1.1-2s0.4-1.3,0.4-2
		c0-0.5-0.1-1-0.2-1.5c-0.1-0.5-0.3-1.1-0.5-1.7c-0.2-0.6-0.5-1.3-0.8-2s-0.6-1.4-1-2.2l4.8-2.2C42,207.5,42.2,208.2,42.5,209z"/>
	<path d="M47.2,216.1c0.1-1,0.1-1.9,0.1-2.9c0-0.9,0.1-1.9,0.1-2.8c0-0.9,0-1.7,0-2.5c-0.1-1.6-0.1-2.9-0.2-4.1
		c-0.1-1.2-0.1-2.2-0.2-3.1s-0.1-1.7-0.2-2.4s-0.1-1.3-0.2-1.9c-0.1-0.6-0.1-1.1-0.2-1.6c-0.1-0.5-0.2-1-0.2-1.6l5.1-1.7
		c0.2,1.5,0.4,3,0.6,4.5s0.3,2.9,0.3,4.3s0.1,2.6,0.2,3.8s0,2.2,0,3c0,0.8,0,1.6,0,2.5c0,0.9,0,1.8,0,2.7c0,0.9,0,1.9-0.1,2.9
		c0,1-0.1,1.9-0.1,2.8l-5.1,0.8C47.1,218,47.1,217.1,47.2,216.1z"/>
	<path d="M67,218.9c-0.2,0-0.6,0-1,0c-0.4,0-0.8-0.2-1.4-0.4c-0.2,1.4-0.7,2.7-1.4,3.9c-0.7,1.2-1.5,2.4-2.5,3.5
		c-1,1.1-2.1,2.1-3.4,3c-1.3,0.9-2.6,1.7-4,2.4l-3-4.2c0.8-0.4,1.6-0.8,2.4-1.3c0.8-0.5,1.6-1,2.3-1.5c0.7-0.5,1.4-1.1,2-1.6
		c0.6-0.6,1.2-1.2,1.6-1.8c0.5-0.6,0.8-1.2,1.1-1.9c0.3-0.6,0.4-1.3,0.4-1.9c0-0.4-0.1-1-0.2-1.6s-0.4-1.4-0.6-2.1
		c-0.3-0.8-0.5-1.5-0.8-2.3c-0.3-0.8-0.6-1.5-0.9-2.1l4.8-2.1c0.4,1.3,0.9,2.4,1.3,3.3c0.4,0.9,0.8,1.6,1.2,2.1s0.7,0.9,1.1,1.1
		c0.3,0.2,0.7,0.3,1,0.3h0.4v5.2H67z M60,203.5l-3.7-3.7l3.7-3.7l3.7,3.7L60,203.5z"/>
	<path d="M82.2,213.7v5.2H66.6v-5.2H82.2z"/>
	<path d="M81.6,213.7h4c0.5,0,1,0,1.6-0.1c0.6,0,1.1-0.2,1.6-0.3c0.5-0.2,0.9-0.4,1.3-0.7c0.3-0.3,0.5-0.7,0.5-1.2
		c0-0.3-0.1-0.7-0.2-1.2c-0.2-0.5-0.4-1.1-0.6-1.8s-0.6-1.3-0.9-2c-0.3-0.7-0.6-1.4-1-2l4.7-2.3c0.3,0.7,0.6,1.4,0.9,2.2
		c0.3,0.8,0.6,1.6,0.8,2.4c0.2,0.8,0.4,1.6,0.6,2.4c0.1,0.8,0.2,1.6,0.2,2.3c0,1.4-0.3,2.5-0.8,3.5c-0.5,1-1.2,1.7-2,2.3
		s-1.9,1-3,1.3c-1.2,0.3-2.4,0.4-3.7,0.4h-3.9V213.7z M88,223.7l-3.1,3.1l-3.2-3.2l3.2-3.2l3.1,3.1l3.1-3.1l3.2,3.2l-3.2,3.2
		L88,223.7z"/>
	<path d="M96.2,225.4c1.6-0.3,3-0.7,4.2-1.2c1.3-0.5,2.4-1,3.4-1.6c1-0.6,1.8-1.2,2.4-1.8c0.6-0.6,1.1-1.3,1.3-2c-0.5,0-1,0-1.5,0
		s-1,0-1.3-0.1c-1.1-0.1-2.1-0.3-3-0.6c-0.9-0.3-1.7-0.8-2.3-1.3s-1.1-1.3-1.5-2.1c-0.4-0.8-0.5-1.8-0.5-2.8c0-0.7,0.1-1.4,0.2-2.1
		c0.1-0.7,0.3-1.4,0.6-2.1c0.3-0.7,0.6-1.3,1-1.9s0.9-1.1,1.4-1.6c0.5-0.5,1.1-0.8,1.7-1.1s1.3-0.4,2-0.4c0.8,0,1.6,0.2,2.3,0.5
		c0.7,0.3,1.4,0.7,1.9,1.2s1.1,1.1,1.6,1.8c0.5,0.7,0.9,1.4,1.2,2.2c0.3,0.8,0.6,1.6,0.8,2.5s0.4,1.7,0.5,2.5h0.7v5.2h-1.1
		c-0.4,1.6-1.1,3.1-2.1,4.4c-0.9,1.3-2.1,2.5-3.4,3.4s-2.8,1.8-4.4,2.4s-3.3,1.1-5,1.4L96.2,225.4z M104.3,208.1
		c-0.2,0-0.5,0-0.8,0.2c-0.3,0.2-0.6,0.5-0.8,0.8c-0.3,0.3-0.5,0.7-0.6,1.1c-0.2,0.4-0.3,0.8-0.2,1.2c0,0.4,0.1,0.7,0.4,0.9
		s0.5,0.4,0.9,0.6c0.4,0.2,0.8,0.3,1.2,0.4s0.9,0.1,1.4,0.2c0.5,0,0.9,0,1.3,0h1c-0.2-0.7-0.4-1.3-0.6-2s-0.5-1.2-0.8-1.7
		c-0.3-0.5-0.6-0.9-1-1.2C105.2,208.4,104.8,208.2,104.3,208.1z"/>
	<path d="M128.3,213.7v5.2h-15.6v-5.2H128.3z"/>
	<path d="M143.3,213.7v5.2h-15.6v-5.2H143.3z"/>
	<path d="M142.6,213.7h1.6c0.6,0,1.3,0,2,0s1.3-0.1,1.9-0.1c0.6-0.1,1.2-0.2,1.7-0.4c0.5-0.2,0.9-0.4,1.3-0.8
		c0.3-0.3,0.5-0.8,0.6-1.3c0.1-0.5,0-1.2-0.2-1.9c-0.1-0.3-0.2-0.6-0.5-1c-0.3-0.4-0.6-0.8-1-1.3c-0.4-0.5-0.8-1-1.3-1.5
		c-0.5-0.5-1-1-1.6-1.6s-1.2-1.1-1.8-1.6c-0.6-0.5-1.2-1.1-1.9-1.6l0.5-4.5l13.9-6.2l2,4.4l-11,5.1c0.5,0.4,1.1,0.8,1.7,1.3
		c0.6,0.5,1.1,1.1,1.7,1.7c0.5,0.6,1,1.3,1.5,1.9c0.5,0.7,0.9,1.4,1.2,2.1c0.4,0.7,0.6,1.4,0.8,2.2c0.2,0.7,0.3,1.4,0.3,2.1
		c0,1.1-0.2,2.2-0.6,3.2c-0.4,1-1,1.8-1.7,2.6c-0.7,0.7-1.6,1.3-2.6,1.7s-2.1,0.6-3.4,0.6h-5.2V213.7z"/>
	<path d="M206.2,193.6l-13.2,5.3c1.1,0.9,2.1,1.8,3.2,2.7s2,1.8,2.9,2.8c0.9,0.9,1.6,1.9,2.1,2.9c0.5,1,0.8,2,0.8,3
		c0,1.1-0.3,2.1-0.8,2.9c-0.5,0.8-1.1,1.5-1.9,2c-0.8,0.6-1.7,1-2.7,1.3c-1,0.3-2.1,0.6-3.1,0.7c-1.1,0.2-2.1,0.3-3.2,0.3
		c-0.7,0-1.4,0-2,0c-0.3,0-0.6,0-0.9,0c-1,0-2-0.1-3.1-0.1c-1.1-0.1-2.2-0.2-3.2-0.4s-2.1-0.5-3.1-0.8c-1-0.3-1.9-0.8-2.6-1.4
		s-1.3-1.3-1.8-2.1c-0.4-0.8-0.7-1.8-0.7-2.9c0-0.4,0.1-0.8,0.2-1.3s0.3-1,0.4-1.5c0.2-0.5,0.4-1,0.6-1.5c0.2-0.5,0.4-0.9,0.7-1.2
		l2.1,1.5c-0.2,0.4-0.4,0.7-0.6,1c-0.2,0.3-0.3,0.6-0.4,1c-0.1,0.3-0.2,0.6-0.3,1c-0.1,0.3-0.1,0.7-0.2,1.1c0,1,0.4,1.9,1,2.6
		c0.6,0.7,1.5,1.2,2.6,1.5c1.1,0.4,2.3,0.6,3.8,0.8c1.5,0.1,3,0.2,4.7,0.3c0.1,0,0.3,0,0.4,0c0.6,0,1.3,0,2.1,0s1.7-0.1,2.6-0.2
		c0.9-0.1,1.8-0.3,2.7-0.5c0.9-0.2,1.6-0.5,2.3-0.8c0.7-0.3,1.2-0.7,1.6-1.2c0.4-0.5,0.6-1.1,0.6-1.7c0-0.5-0.1-1-0.4-1.6
		c-0.3-0.6-0.7-1.1-1.1-1.7s-1-1.2-1.6-1.8c-0.6-0.6-1.2-1.2-1.9-1.8s-1.3-1.1-1.9-1.7c-0.6-0.5-1.2-1-1.7-1.4
		c0.1-0.6,0.1-1.2,0.2-1.7c0.1-0.6,0.1-1.1,0.2-1.7l13.7-5.7L206.2,193.6z"/>
	<path d="M214.6,207.6c0.2,0.6,0.4,1.2,0.6,1.9s0.4,1.5,0.6,2.2s0.4,1.6,0.5,2.4c0.1,0.8,0.2,1.6,0.2,2.3c0,0.9-0.1,1.8-0.4,2.7
		c-0.3,0.9-0.6,1.7-1.1,2.5c-0.5,0.8-1,1.6-1.7,2.3s-1.4,1.4-2.1,2.1c-0.8,0.6-1.6,1.3-2.5,1.8c-0.9,0.6-1.7,1.1-2.6,1.5L205,227
		c1.2-0.6,2.3-1.3,3.4-2c1.1-0.8,2-1.6,2.9-2.5c0.8-0.9,1.5-1.9,2-2.9c0.5-1,0.8-2.1,0.8-3.2c0-0.6-0.1-1.2-0.2-1.9
		c-0.1-0.7-0.3-1.4-0.5-2.1c-0.2-0.7-0.4-1.4-0.6-2.1c-0.2-0.7-0.4-1.4-0.6-2L214.6,207.6z"/>
	<path d="M220.6,226.6c1.7-0.4,3.2-0.9,4.5-1.5c1.3-0.7,2.5-1.4,3.5-2.2s1.7-1.7,2.3-2.6s0.9-1.8,1-2.7c-0.4,0-0.7,0-1.1,0
		c-0.5,0-1.1,0-1.8,0c-0.7,0-1.4-0.1-2.1-0.2c-0.7-0.1-1.4-0.3-2-0.6s-1.1-0.6-1.6-1s-0.8-0.9-1-1.6c-0.2-0.6-0.4-1.4-0.4-2.2
		c0-0.5,0.1-1.1,0.2-1.7c0.1-0.6,0.3-1.2,0.5-1.7c0.2-0.6,0.5-1.1,0.8-1.6c0.3-0.5,0.7-1,1.1-1.4c0.4-0.4,0.9-0.7,1.4-0.9
		c0.5-0.2,1-0.4,1.6-0.4c0.8,0,1.6,0.2,2.2,0.5c0.7,0.4,1.3,0.8,1.8,1.4c0.5,0.6,1,1.3,1.4,2.1s0.7,1.6,1,2.4
		c0.3,0.8,0.4,1.7,0.6,2.5c0.1,0.8,0.2,1.6,0.2,2.4c0,1.2-0.2,2.4-0.5,3.5s-0.8,2.1-1.4,3.1c-0.6,0.9-1.3,1.8-2.1,2.6
		c-0.8,0.8-1.7,1.4-2.7,2c-1,0.6-2,1.1-3.2,1.5c-1.1,0.4-2.3,0.7-3.4,0.9L220.6,226.6z M227.4,206.8c-0.4,0-0.8,0.2-1.2,0.5
		c-0.4,0.3-0.8,0.7-1.1,1.3c-0.3,0.5-0.6,1.1-0.8,1.7s-0.3,1.2-0.3,1.7c0.1,0.5,0.2,1,0.5,1.3c0.3,0.4,0.6,0.6,1.1,0.9
		c0.4,0.2,0.9,0.4,1.5,0.5c0.5,0.1,1.1,0.2,1.7,0.2c0.6,0,1.1,0.1,1.7,0.1c0.5,0,1,0,1.5,0c0-0.5,0-1-0.1-1.6
		c-0.1-0.6-0.2-1.2-0.4-1.8c-0.2-0.6-0.4-1.2-0.7-1.7c-0.3-0.6-0.6-1.1-0.9-1.5s-0.7-0.8-1.1-1S227.9,206.8,227.4,206.8z"/>
	<path d="M269.1,215v2.6h-0.8c-0.6,0-1.2-0.1-1.8-0.4s-1-0.7-1.4-1.3c-0.2,0.3-0.5,0.5-0.8,0.7s-0.6,0.3-1,0.4c-0.1,0-0.3,0-0.4,0
		c-0.2,0-0.5,0-0.8-0.1c-0.4-0.1-0.8-0.2-1.4-0.4s-1.2-0.4-1.9-0.7s-1.4-0.5-2-0.8c-0.7-0.3-1.3-0.5-2-0.8c-0.6-0.2-1.2-0.5-1.8-0.6
		c-0.1,0.1-0.1,0.1-0.1,0.2c0,0.1,0,0.3,0,0.5l0.6,15.1h-2.6l-0.6-15c0-0.1,0-0.1,0-0.2c0-0.4,0.1-0.8,0.2-1.2
		c0.1-0.4,0.3-0.7,0.6-1c0.3-0.3,0.6-0.6,0.9-0.7c0.4-0.2,0.8-0.3,1.2-0.3c0.4,0,0.9,0.1,1.5,0.3c0.2-0.5,0.4-1,0.6-1.5
		s0.5-1.1,0.8-1.6s0.6-1,1-1.5s0.7-0.9,1.2-1.3s0.9-0.7,1.4-0.9c0.5-0.2,1-0.3,1.5-0.3c0.1,0,0.1,0,0.2,0c0.9,0,1.6,0.2,2.3,0.6
		c0.7,0.3,1.2,0.8,1.6,1.3c0.4,0.6,0.8,1.2,1,1.9c0.2,0.7,0.4,1.4,0.4,2.2c0,0.2,0,0.4,0,0.7s0,0.5,0,0.9c0,0.4-0.1,0.8-0.2,1.3
		c0.1,0.2,0.2,0.5,0.3,0.7s0.3,0.4,0.4,0.6s0.3,0.3,0.6,0.4c0.2,0.1,0.4,0.1,0.7,0.1H269.1z M260.3,213.7c0.7,0.3,1.2,0.5,1.7,0.6
		s0.7,0.2,0.8,0.2c0.2-0.1,0.4-0.3,0.5-0.5c0.1-0.3,0.3-0.6,0.4-1c0.1-0.4,0.2-0.7,0.2-1.1s0.1-0.7,0.1-0.9c0-0.4-0.1-0.9-0.2-1.4
		c-0.1-0.5-0.3-0.9-0.5-1.3c-0.2-0.4-0.5-0.7-0.9-1s-0.8-0.4-1.3-0.4c0,0,0,0,0,0c-0.2,0-0.5,0.1-0.8,0.2s-0.5,0.4-0.8,0.7
		s-0.5,0.6-0.8,1c-0.2,0.4-0.5,0.8-0.7,1.2c-0.2,0.4-0.4,0.8-0.6,1.2s-0.3,0.8-0.4,1.1L260.3,213.7z"/>
	<path d="M268.4,215h3.1c0.7,0,1.3,0,2-0.1c0.7,0,1.3-0.1,1.9-0.3c0.6-0.1,1.1-0.4,1.6-0.6c0.5-0.3,0.8-0.6,1.1-1.1
		c0.2-0.3,0.3-0.6,0.3-1c0-0.1,0-0.2,0-0.3c0-0.3,0-0.7-0.1-1.1c-0.1-0.4-0.2-0.9-0.3-1.5s-0.3-1.1-0.5-1.6
		c-0.2-0.5-0.4-1.1-0.6-1.6s-0.4-1-0.6-1.4l2.3-1.2c0.2,0.5,0.4,1.1,0.7,1.6c0.2,0.6,0.5,1.2,0.7,1.8c0.2,0.6,0.4,1.3,0.6,1.9
		c0.2,0.7,0.3,1.3,0.3,1.9c0,0.3,0,0.7,0,1c0,0.3,0,0.6-0.1,1.1c0,0.4-0.2,0.9-0.4,1.4c-0.3,0.7-0.7,1.3-1.3,1.8s-1.2,0.9-1.9,1.1
		c-0.7,0.3-1.5,0.5-2.4,0.6s-1.8,0.2-2.8,0.2h-3.8V215z M274.3,223.3l-2.4,2.4l-2.4-2.4l2.4-2.4L274.3,223.3z M280.2,223.3l-2.4,2.4
		l-2.4-2.4l2.4-2.4L280.2,223.3z"/>
	<path d="M292.6,216.8c0,0.9-0.1,1.8-0.4,2.7c-0.3,0.9-0.6,1.7-1.1,2.5c-0.5,0.8-1,1.6-1.7,2.3s-1.4,1.4-2.1,2.1s-1.6,1.3-2.4,1.8
		c-0.9,0.6-1.7,1.1-2.6,1.5c-0.2-0.4-0.4-0.8-0.6-1.2c-0.2-0.3-0.4-0.7-0.6-1.1c0.7-0.4,1.4-0.8,2.2-1.3c0.7-0.5,1.5-1,2.2-1.6
		c0.7-0.6,1.3-1.2,1.9-1.8s1.1-1.3,1.5-2s0.7-1.4,1-2.2c0.1-0.5,0.2-1.1,0.2-1.6c0-0.2,0-0.5,0-0.7c-0.1-0.6-0.2-1.2-0.3-1.9
		c-0.1-0.7-0.3-1.3-0.5-2c-0.2-0.7-0.4-1.3-0.5-1.9c-0.2-0.6-0.3-1.1-0.5-1.6l2.5-0.8c0.4,1.2,0.8,2.3,1.2,3.2s0.8,1.6,1.3,2.2
		c0.4,0.6,0.9,1,1.4,1.3c0.5,0.3,1,0.4,1.5,0.4h0.3v2.6h-0.3c-0.2,0-0.4,0-0.6,0s-0.6-0.1-0.9-0.2s-0.7-0.3-1-0.5
		c-0.3-0.2-0.7-0.6-0.9-1V216.8z"/>
	<path d="M311.4,215v2.6h-15.6V215H311.4z"/>
	<path d="M311.1,215c1.5,0,2.9-0.1,4.1-0.2c1.2-0.1,2.2-0.3,3.1-0.5c0.9-0.2,1.6-0.6,2.2-1s1.1-0.9,1.5-1.5
		c-0.7,0.1-1.4,0.1-2.1,0.1c-0.7,0-1.5-0.1-2.4-0.2c-0.9-0.1-1.7-0.4-2.5-0.9c-0.8-0.5-1.3-1.2-1.7-2c-0.2-0.6-0.3-1.2-0.3-1.9
		c0-0.4,0-0.9,0.1-1.4c0.1-0.7,0.3-1.3,0.6-2s0.6-1.3,1.1-1.9c0.4-0.6,0.9-1,1.5-1.4c0.6-0.4,1.2-0.5,1.9-0.5c0.7,0,1.3,0.1,1.9,0.4
		c0.6,0.3,1.1,0.7,1.6,1.2s0.9,1.1,1.3,1.8c0.4,0.7,0.7,1.4,0.9,2.1c0.2,0.7,0.4,1.5,0.6,2.2c0.1,0.7,0.2,1.5,0.2,2.1
		c0,1.1-0.2,2-0.5,2.9c-0.3,0.8-0.8,1.5-1.4,2.1c-0.6,0.6-1.3,1.1-2.1,1.5s-1.7,0.7-2.7,0.9c-1,0.2-2,0.4-3.2,0.5
		c-1.1,0.1-2.3,0.1-3.5,0.1h-0.6V215H311.1z M318.1,202.2c-0.2,0-0.4,0.1-0.7,0.2s-0.6,0.4-0.9,0.7c-0.3,0.3-0.6,0.7-0.8,1.1
		s-0.4,1-0.5,1.6c-0.1,0.3-0.1,0.6-0.1,0.8c0,0.4,0.1,0.8,0.3,1.2c0.2,0.4,0.6,0.7,1.1,0.9s1.1,0.3,1.8,0.4c0.7,0,1.3,0.1,1.9,0.1
		c0.2,0,0.5,0,0.8,0c0.3,0,0.6,0,1-0.1c0-0.4-0.1-0.8-0.2-1.3c-0.1-0.5-0.2-1-0.4-1.5c-0.2-0.5-0.4-1-0.6-1.5
		c-0.2-0.5-0.5-0.9-0.8-1.3c-0.3-0.4-0.6-0.7-1-0.9C318.9,202.4,318.5,202.2,318.1,202.2z M320.4,193.4l-2.4,2.4l-2.4-2.4l2.4-2.4
		L320.4,193.4z"/>
</g>
<g>
	<path d="M37.2,305.7c0.6,0,1.3,0,2.1,0s1.6,0,2.5-0.1c0.9-0.1,1.7-0.1,2.5-0.3c0.8-0.1,1.6-0.3,2.2-0.6c0.7-0.3,1.2-0.6,1.6-1
		s0.6-0.9,0.6-1.5c0-0.5-0.2-1-0.6-1.6c-0.4-0.6-1-1.2-1.8-2s-1.8-1.6-2.9-2.5s-2.5-2-4-3.3l0.5-4.9l14.9-6.5l2,4.9l-11.6,5
		c0.6,0.5,1.2,1.1,1.9,1.6s1.3,1.1,1.9,1.7s1.2,1.2,1.7,1.8c0.5,0.6,1,1.2,1.4,1.8c0.4,0.6,0.7,1.3,0.9,1.9c0.2,0.6,0.3,1.3,0.3,2
		c-0.1,1.5-0.3,2.7-0.9,3.7s-1.2,1.8-2,2.5c-0.8,0.7-1.8,1.2-2.9,1.5c-1.1,0.4-2.2,0.6-3.4,0.8s-2.4,0.3-3.5,0.3c-1.2,0-2.3,0-3.4,0
		c-1.1,0-2.3,0-3.6-0.1c-1.2-0.1-2.4-0.3-3.6-0.5c-1.2-0.2-2.3-0.6-3.3-1c-1-0.4-2-1-2.7-1.6c-0.8-0.7-1.4-1.5-1.9-2.4
		c-0.5-1-0.7-2.1-0.7-3.4c0-1.1,0.2-2.1,0.6-3.1c0.4-1,0.9-2,1.5-3l3.9,2.9c-0.2,0.3-0.3,0.6-0.5,0.8c-0.2,0.3-0.3,0.6-0.5,0.9
		c-0.1,0.3-0.3,0.6-0.4,0.9c-0.1,0.3-0.1,0.6-0.1,0.9c0,0.4,0.2,0.8,0.5,1.1s0.7,0.6,1.3,0.9c0.5,0.2,1.2,0.5,1.9,0.6
		c0.7,0.2,1.5,0.3,2.3,0.4c0.8,0.1,1.7,0.2,2.7,0.3C35.3,305.6,36.2,305.7,37.2,305.7z"/>
	<path d="M66.5,301.2c0.3,0.8,0.5,1.6,0.7,2.5c0.2,0.8,0.4,1.7,0.5,2.5c0.1,0.8,0.2,1.6,0.2,2.4c0,1-0.1,2-0.4,3
		c-0.3,1-0.7,1.9-1.2,2.9c-0.5,0.9-1.1,1.8-1.8,2.7c-0.7,0.8-1.5,1.6-2.3,2.4c-0.9,0.8-1.8,1.5-2.8,2.1s-2,1.2-3,1.7l-3-4.2
		c0.8-0.4,1.6-0.8,2.4-1.3s1.6-1,2.3-1.6c0.7-0.6,1.4-1.2,2.1-1.8s1.2-1.3,1.7-1.9c0.5-0.7,0.9-1.3,1.1-2s0.4-1.3,0.4-2
		c0-0.5-0.1-1-0.2-1.5c-0.1-0.5-0.3-1.1-0.5-1.7c-0.2-0.6-0.5-1.3-0.8-2s-0.6-1.4-1-2.2l4.8-2.2C66,299.6,66.3,300.3,66.5,301.2z"/>
	<path d="M69.1,317.6c1.6-0.3,3-0.7,4.2-1.2c1.3-0.5,2.4-1,3.4-1.6c1-0.6,1.8-1.2,2.4-1.8c0.6-0.6,1.1-1.3,1.3-2c-0.5,0-1,0-1.5,0
		s-1,0-1.3-0.1c-1.1-0.1-2.1-0.3-3-0.6c-0.9-0.3-1.7-0.8-2.3-1.3s-1.1-1.3-1.5-2.1c-0.4-0.8-0.5-1.8-0.5-2.8c0-0.7,0.1-1.4,0.2-2.1
		c0.1-0.7,0.3-1.4,0.6-2.1c0.3-0.7,0.6-1.3,1-1.9s0.9-1.1,1.4-1.6c0.5-0.5,1.1-0.8,1.7-1.1s1.3-0.4,2-0.4c1,0,1.9,0.2,2.8,0.7
		s1.6,1,2.2,1.8c0.6,0.7,1.2,1.6,1.7,2.5c0.5,1,0.8,1.9,1.1,3c0.3,1,0.5,2.1,0.6,3.1s0.1,2,0,2.8c-0.1,1.3-0.4,2.5-0.9,3.6
		s-1,2.2-1.7,3.1c-0.7,1-1.5,1.8-2.4,2.6c-0.9,0.8-1.9,1.5-3,2c-1.1,0.6-2.2,1.1-3.4,1.5c-1.2,0.4-2.5,0.7-3.7,0.9L69.1,317.6z
		 M77.2,300.3c-0.2,0-0.5,0-0.8,0.2c-0.3,0.2-0.6,0.5-0.8,0.8c-0.3,0.3-0.5,0.7-0.6,1.1c-0.2,0.4-0.3,0.8-0.3,1.2
		c0,0.4,0.1,0.7,0.3,0.9c0.2,0.2,0.5,0.4,0.9,0.6s0.8,0.3,1.2,0.4c0.5,0.1,0.9,0.1,1.4,0.2s0.9,0,1.3,0h1c-0.2-0.7-0.4-1.3-0.6-2
		s-0.5-1.2-0.8-1.7c-0.3-0.5-0.6-0.9-1-1.2C78.1,300.6,77.7,300.4,77.2,300.3z"/>
	<path d="M98.9,323.2l-0.6-16.4c0-0.1,0-0.3,0-0.6c0-0.3,0.1-0.7,0.2-1s0.3-0.8,0.5-1.2c0.2-0.4,0.6-0.8,1-1.1
		c0.1-0.1,0.3-0.2,0.5-0.3c0.2-0.1,0.4-0.2,0.7-0.3s0.5-0.1,0.7-0.2c0.3,0,0.5-0.1,0.8-0.1h0.3c0.1,0,0.2,0,0.3,0
		c0.3-0.8,0.7-1.6,1.2-2.5c0.5-0.8,1-1.6,1.6-2.2s1.3-1.2,2.1-1.6c0.8-0.4,1.6-0.6,2.5-0.6c1.1,0,2,0.2,2.8,0.6s1.4,1,1.9,1.7
		c0.5,0.7,0.9,1.5,1.2,2.4c0.3,0.9,0.6,1.8,0.8,2.8c0.2,1,0.4,1.7,0.5,2.3c0.2,0.6,0.4,0.9,0.6,0.9h0.5v5.2h-0.6
		c-0.7,0-1.2-0.2-1.7-0.4s-0.9-0.6-1.3-1.2c-0.3,0.2-0.6,0.4-0.9,0.6c-0.3,0.2-0.6,0.3-1,0.4c-0.3,0-0.7,0-1.2,0
		c-0.5,0-1-0.1-1.6-0.3c-0.6-0.1-1.2-0.3-1.8-0.5s-1.3-0.4-1.9-0.6s-1.3-0.5-1.9-0.7c-0.6-0.3-1.2-0.5-1.7-0.8
		c0.1,2.4,0.3,4.9,0.4,7.4s0.3,5,0.4,7.3L98.9,323.2z M110.5,300.4c-0.4,0-0.7,0.2-1,0.4c-0.3,0.2-0.6,0.5-0.9,0.8
		c-0.3,0.3-0.5,0.6-0.7,1c-0.2,0.3-0.4,0.7-0.5,1c0.4,0.2,0.9,0.5,1.4,0.7s1.1,0.4,1.6,0.6c0.6,0.2,1.1,0.3,1.6,0.5s1,0.2,1.4,0.2
		c-0.1-0.6-0.3-1.2-0.4-1.9c-0.2-0.6-0.4-1.2-0.6-1.7s-0.5-0.9-0.8-1.2S110.9,300.3,110.5,300.4z"/>
	<path d="M118.2,305.8h4c0.5,0,1,0,1.6-0.1c0.6,0,1.1-0.2,1.6-0.3c0.5-0.2,0.9-0.4,1.3-0.7c0.3-0.3,0.5-0.7,0.5-1.2
		c0-0.3-0.1-0.7-0.2-1.2c-0.2-0.5-0.4-1.1-0.6-1.8s-0.6-1.3-0.9-2c-0.3-0.7-0.6-1.4-1-2l4.7-2.3c0.3,0.7,0.6,1.4,0.9,2.2
		c0.3,0.8,0.6,1.6,0.8,2.4c0.2,0.8,0.4,1.6,0.6,2.4c0.1,0.8,0.2,1.6,0.2,2.3c0,1.4-0.3,2.5-0.8,3.5c-0.5,1-1.2,1.7-2,2.3
		s-1.9,1-3,1.3c-1.2,0.3-2.4,0.4-3.7,0.4h-3.9V305.8z M124.6,315.9l-3.1,3.1l-3.2-3.2l3.2-3.2l3.1,3.1l3.1-3.1l3.2,3.2l-3.2,3.2
		L124.6,315.9z"/>
	<path d="M145.9,311c-0.2,0-0.6,0-1,0c-0.4,0-0.8-0.2-1.4-0.4c-0.2,1.4-0.7,2.7-1.4,3.9c-0.7,1.2-1.5,2.4-2.5,3.5
		c-1,1.1-2.1,2.1-3.4,3c-1.3,0.9-2.6,1.7-4,2.4l-3-4.2c0.8-0.4,1.6-0.8,2.4-1.3c0.8-0.5,1.6-1,2.3-1.5c0.7-0.5,1.4-1.1,2-1.6
		c0.6-0.6,1.2-1.2,1.6-1.8c0.5-0.6,0.8-1.2,1.1-1.9c0.3-0.6,0.4-1.3,0.4-1.9c0-0.4-0.1-1-0.2-1.6s-0.4-1.4-0.6-2.1
		c-0.3-0.8-0.5-1.5-0.8-2.3c-0.3-0.8-0.6-1.5-0.9-2.1l4.8-2.1c0.4,1.3,0.9,2.4,1.3,3.3c0.4,0.9,0.8,1.6,1.2,2.1s0.7,0.9,1.1,1.1
		c0.3,0.2,0.7,0.3,1,0.3h0.4v5.2H145.9z"/>
	<path d="M146.1,305.8c0.4,0,0.9,0,1.5,0c0.6,0,1.2,0,1.9,0s1.3-0.1,2-0.1c0.7-0.1,1.3-0.1,2-0.2s1.2-0.2,1.7-0.4s0.9-0.4,1.3-0.6
		c-1.4,0.1-2.8,0.2-4,0.1c-1.2-0.1-2.2-0.3-3.1-0.7c-0.9-0.4-1.6-1-2-1.8c-0.5-0.8-0.7-1.8-0.8-3.2c0-0.6,0.1-1.2,0.2-1.9
		s0.3-1.3,0.6-1.9s0.6-1.2,0.9-1.8c0.4-0.6,0.8-1,1.3-1.5c0.5-0.4,1-0.8,1.6-1c0.6-0.2,1.2-0.4,1.9-0.4c0.9,0,1.7,0.2,2.4,0.5
		c0.7,0.3,1.4,0.8,1.9,1.3s1.1,1.2,1.5,2c0.4,0.7,0.8,1.5,1.1,2.4c0.3,0.8,0.5,1.7,0.6,2.5c0.1,0.9,0.2,1.7,0.2,2.5
		c0,1.3-0.2,2.5-0.6,3.5c-0.4,1-0.9,1.8-1.5,2.5s-1.4,1.3-2.4,1.7c-0.9,0.4-1.9,0.8-3,1c-1.1,0.3-2.2,0.4-3.4,0.5s-2.5,0.1-3.7,0.1
		h-0.6v-5.2H146.1z M152.8,288.8l-3.7-3.7l3.7-3.7l3.7,3.7L152.8,288.8z M152.9,295.7c-0.3,0-0.5,0.1-0.8,0.2
		c-0.3,0.2-0.5,0.4-0.7,0.6c-0.2,0.3-0.4,0.6-0.6,0.9c-0.1,0.3-0.2,0.7-0.2,1c0,0.3,0.1,0.6,0.3,0.8c0.2,0.2,0.5,0.4,0.8,0.5
		s0.7,0.2,1.1,0.3s0.8,0.1,1.2,0.1c0.4,0,0.8,0,1.1,0c0.3,0,0.6,0,0.8-0.1c-0.1-0.5-0.2-1-0.4-1.5c-0.2-0.5-0.4-1-0.6-1.4
		c-0.2-0.4-0.5-0.8-0.9-1C153.7,295.9,153.3,295.7,152.9,295.7z"/>
	<path d="M211.6,311h-0.7c-1.8,0-3.3-0.3-4.6-0.9s-2.5-1.5-3.7-2.6c-0.3,0.6-0.8,1.1-1.4,1.5s-1.3,0.7-2.1,1s-1.6,0.5-2.5,0.6
		c-0.9,0.1-1.8,0.2-2.7,0.3c-0.9,0.1-1.8,0.1-2.7,0.1c-0.9,0-1.7,0-2.4,0c-1.2,0-2.4-0.1-3.7-0.1c-1.2-0.1-2.4-0.2-3.5-0.4
		c-1.1-0.2-2.2-0.5-3.2-0.9c-1-0.4-1.9-0.9-2.6-1.6s-1.3-1.5-1.7-2.5s-0.6-2.2-0.6-3.6c0-0.5,0-1,0.1-1.5c0.1-0.6,0.2-1.1,0.4-1.6
		c0.2-0.5,0.4-1.1,0.6-1.6s0.5-0.9,0.8-1.3l3.9,2.8c-0.1,0.2-0.3,0.5-0.5,0.8c-0.2,0.3-0.3,0.6-0.5,0.9s-0.3,0.6-0.4,1
		c-0.1,0.3-0.2,0.6-0.2,0.9c0,0.5,0.2,0.9,0.6,1.2c0.4,0.4,0.9,0.7,1.5,0.9c0.6,0.3,1.4,0.5,2.2,0.6s1.7,0.3,2.6,0.4
		c0.9,0.1,1.9,0.2,2.8,0.2c1,0,1.9,0.1,2.8,0.1c0.6,0,1.3,0,2.1,0s1.5-0.1,2.3-0.2c0.8-0.1,1.5-0.2,2.2-0.4c0.7-0.2,1.3-0.4,1.9-0.6
		c0.6-0.3,1-0.6,1.3-0.9c0.3-0.4,0.5-0.8,0.5-1.3c0-0.5-0.1-1-0.4-1.6s-0.7-1.1-1.2-1.7c-0.5-0.6-1-1.2-1.6-1.7
		c-0.6-0.6-1.2-1.1-1.8-1.7s-1.2-1-1.8-1.5c-0.6-0.5-1.1-0.8-1.5-1.2l0.5-4.5l15.3-6.4l1.9,4.6l-12.7,5.1c0.8,0.6,1.6,1.3,2.3,1.9
		s1.4,1.3,2,2s1.2,1.4,1.8,2.1s1,1.6,1.4,2.4c0.3,0.7,0.7,1.3,1,2s0.8,1.2,1.3,1.8c0.5,0.5,1,1,1.7,1.3s1.4,0.5,2.2,0.5h0.7V311z"/>
	<path d="M210.9,305.8h4c0.5,0,1,0,1.6-0.1c0.6,0,1.1-0.2,1.6-0.3c0.5-0.2,0.9-0.4,1.3-0.7c0.3-0.3,0.5-0.7,0.5-1.2
		c0-0.3-0.1-0.7-0.2-1.2c-0.2-0.5-0.4-1.1-0.6-1.8s-0.6-1.3-0.9-2c-0.3-0.7-0.6-1.4-1-2l4.7-2.3c0.3,0.7,0.6,1.4,0.9,2.2
		c0.3,0.8,0.6,1.6,0.8,2.4c0.2,0.8,0.4,1.6,0.6,2.4c0.1,0.8,0.2,1.6,0.2,2.3c0,1.4-0.3,2.5-0.8,3.5c-0.5,1-1.2,1.7-2,2.3
		s-1.9,1-3,1.3c-1.2,0.3-2.4,0.4-3.7,0.4h-3.9V305.8z M217.3,315.9l-3.1,3.1l-3.2-3.2l3.2-3.2l3.1,3.1l3.1-3.1l3.2,3.2l-3.2,3.2
		L217.3,315.9z"/>
	<path d="M246.7,301.2c0.3,0.8,0.5,1.6,0.7,2.5c0.2,0.8,0.4,1.7,0.5,2.5c0.1,0.8,0.2,1.6,0.2,2.4c0,1-0.1,2-0.4,3
		c-0.3,1-0.7,1.9-1.2,2.9c-0.5,0.9-1.1,1.8-1.8,2.7c-0.7,0.8-1.5,1.6-2.3,2.4c-0.9,0.8-1.8,1.5-2.8,2.1s-2,1.2-3,1.7l-3-4.2
		c0.8-0.4,1.6-0.8,2.4-1.3s1.6-1,2.3-1.6c0.7-0.6,1.4-1.2,2.1-1.8s1.2-1.3,1.7-1.9c0.5-0.7,0.9-1.3,1.1-2s0.4-1.3,0.4-2
		c0-0.5-0.1-1-0.2-1.5c-0.1-0.5-0.3-1.1-0.5-1.7c-0.2-0.6-0.5-1.3-0.8-2s-0.6-1.4-1-2.2l4.8-2.2
		C246.2,299.6,246.4,300.3,246.7,301.2z M243.1,295.7l-3.7-3.7l3.7-3.7l3.7,3.7L243.1,295.7z"/>
	<path d="M251.7,308.3c0.1-1,0.1-1.9,0.1-2.9c0-0.9,0.1-1.9,0.1-2.8c0-0.9,0-1.7,0-2.5c-0.1-1.6-0.1-2.9-0.2-4.1
		c-0.1-1.2-0.1-2.2-0.2-3.1s-0.1-1.7-0.2-2.4s-0.1-1.3-0.2-1.9c-0.1-0.6-0.1-1.1-0.2-1.6c-0.1-0.5-0.2-1-0.2-1.6l5.1-1.7
		c0.2,1.5,0.4,3,0.6,4.5s0.3,2.9,0.3,4.3s0.1,2.6,0.2,3.8s0,2.2,0,3c0,0.8,0,1.6,0,2.5c0,0.9,0,1.8,0,2.7c0,0.9,0,1.9-0.1,2.9
		c0,1-0.1,1.9-0.1,2.8l-5.1,0.8C251.6,310.2,251.7,309.2,251.7,308.3z"/>
	<path d="M283,311c-0.2,0-0.6,0-1,0c-0.4,0-0.8-0.2-1.4-0.4c-0.2,1.4-0.7,2.7-1.4,3.9c-0.7,1.2-1.5,2.4-2.5,3.5
		c-1,1.1-2.1,2.1-3.4,3c-1.3,0.9-2.6,1.7-4,2.4l-3-4.2c0.8-0.4,1.6-0.8,2.4-1.3c0.8-0.5,1.6-1,2.3-1.5c0.7-0.5,1.4-1.1,2-1.6
		c0.6-0.6,1.2-1.2,1.6-1.8c0.5-0.6,0.8-1.2,1.1-1.9c0.3-0.6,0.4-1.3,0.4-1.9c0-0.4-0.1-1-0.2-1.6s-0.4-1.4-0.6-2.1
		c-0.3-0.8-0.5-1.5-0.8-2.3c-0.3-0.8-0.6-1.5-0.9-2.1l4.8-2.1c0.4,1.3,0.9,2.4,1.3,3.3c0.4,0.9,0.8,1.6,1.2,2.1s0.7,0.9,1.1,1.1
		c0.3,0.2,0.7,0.3,1,0.3h0.4v5.2H283z"/>
	<path d="M282.7,305.8h4c0.5,0,1,0,1.6-0.1c0.6,0,1.1-0.2,1.6-0.3c0.5-0.2,0.9-0.4,1.3-0.7c0.3-0.3,0.5-0.7,0.5-1.2
		c0-0.3-0.1-0.7-0.2-1.2c-0.2-0.5-0.4-1.1-0.6-1.8s-0.6-1.3-0.9-2c-0.3-0.7-0.6-1.4-1-2l4.7-2.3c0.3,0.7,0.6,1.4,0.9,2.2
		c0.3,0.8,0.6,1.6,0.8,2.4c0.2,0.8,0.4,1.6,0.6,2.4c0.1,0.8,0.2,1.6,0.2,2.3c0,1.4-0.3,2.5-0.8,3.5c-0.5,1-1.2,1.7-2,2.3
		s-1.9,1-3,1.3c-1.2,0.3-2.4,0.4-3.7,0.4h-3.9V305.8z M290.4,288.8l-3.1,3.1l-3.2-3.2l3.2-3.2l3.1,3.1l3.1-3.1l3.2,3.2l-3.2,3.2
		L290.4,288.8z"/>
	<path d="M299.5,308.3c0.1-1,0.1-1.9,0.1-2.9c0-0.9,0.1-1.9,0.1-2.8c0-0.9,0-1.7,0-2.5c-0.1-1.6-0.1-2.9-0.2-4.1
		c-0.1-1.2-0.1-2.2-0.2-3.1s-0.1-1.7-0.2-2.4s-0.1-1.3-0.2-1.9c-0.1-0.6-0.1-1.1-0.2-1.6c-0.1-0.5-0.2-1-0.2-1.6l5.1-1.7
		c0.2,1.5,0.4,3,0.6,4.5s0.3,2.9,0.3,4.3s0.1,2.6,0.2,3.8s0,2.2,0,3c0,0.8,0,1.6,0,2.5c0,0.9,0,1.8,0,2.7c0,0.9,0,1.9-0.1,2.9
		c0,1-0.1,1.9-0.1,2.8l-5.1,0.8C299.4,310.2,299.4,309.2,299.5,308.3z"/>
	<path d="M319.3,311c-0.2,0-0.6,0-1,0c-0.4,0-0.8-0.2-1.4-0.4c-0.2,1.4-0.7,2.7-1.4,3.9c-0.7,1.2-1.5,2.4-2.5,3.5
		c-1,1.1-2.1,2.1-3.4,3c-1.3,0.9-2.6,1.7-4,2.4l-3-4.2c0.8-0.4,1.6-0.8,2.4-1.3c0.8-0.5,1.6-1,2.3-1.5c0.7-0.5,1.4-1.1,2-1.6
		c0.6-0.6,1.2-1.2,1.6-1.8c0.5-0.6,0.8-1.2,1.1-1.9c0.3-0.6,0.4-1.3,0.4-1.9c0-0.4-0.1-1-0.2-1.6s-0.4-1.4-0.6-2.1
		c-0.3-0.8-0.5-1.5-0.8-2.3c-0.3-0.8-0.6-1.5-0.9-2.1l4.8-2.1c0.4,1.3,0.9,2.4,1.3,3.3c0.4,0.9,0.8,1.6,1.2,2.1s0.7,0.9,1.1,1.1
		c0.3,0.2,0.7,0.3,1,0.3h0.4v5.2H319.3z"/>
	<path d="M319.5,305.8c0.4,0,0.9,0,1.5,0c0.6,0,1.2,0,1.9,0s1.3-0.1,2-0.1c0.7-0.1,1.3-0.1,2-0.2s1.2-0.2,1.7-0.4s0.9-0.4,1.3-0.6
		c-1.4,0.1-2.8,0.2-4,0.1c-1.2-0.1-2.2-0.3-3.1-0.7c-0.9-0.4-1.6-1-2-1.8c-0.5-0.8-0.7-1.8-0.8-3.2c0-0.6,0.1-1.2,0.2-1.9
		s0.3-1.3,0.6-1.9s0.6-1.2,0.9-1.8c0.4-0.6,0.8-1,1.3-1.5c0.5-0.4,1-0.8,1.6-1c0.6-0.2,1.2-0.4,1.9-0.4c0.9,0,1.7,0.2,2.4,0.5
		c0.7,0.3,1.4,0.8,1.9,1.3s1.1,1.2,1.5,2c0.4,0.7,0.8,1.5,1.1,2.4c0.3,0.8,0.5,1.7,0.6,2.5c0.1,0.9,0.2,1.7,0.2,2.5
		c0,1.3-0.2,2.5-0.6,3.5c-0.4,1-0.9,1.8-1.5,2.5s-1.4,1.3-2.4,1.7c-0.9,0.4-1.9,0.8-3,1c-1.1,0.3-2.2,0.4-3.4,0.5s-2.5,0.1-3.7,0.1
		H319v-5.2H319.5z M326.2,288.8l-3.7-3.7l3.7-3.7l3.7,3.7L326.2,288.8z M326.3,295.7c-0.3,0-0.5,0.1-0.8,0.2
		c-0.3,0.2-0.5,0.4-0.7,0.6c-0.2,0.3-0.4,0.6-0.6,0.9c-0.1,0.3-0.2,0.7-0.2,1c0,0.3,0.1,0.6,0.3,0.8c0.2,0.2,0.5,0.4,0.8,0.5
		s0.7,0.2,1.1,0.3s0.8,0.1,1.2,0.1c0.4,0,0.8,0,1.1,0c0.3,0,0.6,0,0.8-0.1c-0.1-0.5-0.2-1-0.4-1.5c-0.2-0.5-0.4-1-0.6-1.4
		c-0.2-0.4-0.5-0.8-0.9-1C327.1,295.9,326.8,295.7,326.3,295.7z"/>
</g>
</svg>
